<svg width="178" height="30" viewBox="0 0 178 30" fill="none" xmlns="http://www.w3.org/2000/svg">
<g filter="url(#filter0_d_4_554)">
<path d="M47.5494 12.3731V18.2048H57.1172V21.5989H44V0H56.9629V3.39411H47.5494V9.00982H56.1913V12.3731H47.5494Z" fill="#FDFDFD"/>
<path d="M71.786 13.8233H60.3663V10.6143H71.786V13.8233Z" fill="#FDFDFD"/>
<path d="M92.9823 0H96.7786V21.5989H93.2292V6.20196L86.6552 17.0631H86.2231L79.6491 6.17111V21.5989H76.0997V0H79.9269L86.4392 10.7994L92.9823 0Z" fill="#FDFDFD"/>
<path d="M115.778 15.3043H103.494C103.741 16.4563 104.296 17.3511 105.16 17.9888C106.045 18.6265 107.136 18.9453 108.432 18.9453C110.181 18.9453 111.508 18.3076 112.413 17.0323L115.16 18.6367C113.658 20.8789 111.405 22 108.401 22C105.911 22 103.885 21.2389 102.321 19.7167C100.778 18.1739 100.006 16.23 100.006 13.885C100.006 11.6017 100.767 9.67835 102.29 8.11501C103.792 6.55166 105.747 5.76999 108.154 5.76999C110.397 5.76999 112.249 6.56195 113.71 8.14586C115.171 9.72978 115.901 11.6531 115.901 13.9158C115.901 14.3273 115.86 14.7901 115.778 15.3043ZM103.463 12.5891H112.537C112.31 11.3754 111.796 10.4395 110.994 9.78121C110.212 9.12295 109.255 8.79383 108.123 8.79383C106.889 8.79383 105.86 9.13324 105.037 9.81206C104.214 10.4909 103.689 11.4165 103.463 12.5891Z" fill="#FDFDFD"/>
<path d="M126.951 5.76999C128.741 5.76999 130.171 6.34596 131.241 7.4979C132.332 8.62927 132.877 10.172 132.877 12.1262V21.5989H129.544V12.4656C129.544 11.3137 129.235 10.4292 128.618 9.81206C128.001 9.19495 127.157 8.88639 126.087 8.88639C124.873 8.88639 123.916 9.26695 123.217 10.028C122.517 10.7686 122.167 11.8691 122.167 13.3296V21.5989H118.834V6.17111H122.167V8.14586C123.196 6.56195 124.791 5.76999 126.951 5.76999Z" fill="#FDFDFD"/>
<path d="M145.077 6.17111V9.38008H141.25V16.7854C141.25 17.4231 141.394 17.8859 141.682 18.1739C141.97 18.4413 142.392 18.5956 142.948 18.6367C143.524 18.6573 144.234 18.647 145.077 18.6059V21.5989C142.526 21.9074 140.695 21.6914 139.584 20.9509C138.472 20.1898 137.917 18.8013 137.917 16.7854V9.38008H135.077V6.17111H137.917V2.83871L141.25 1.85133V6.17111H145.077Z" fill="#FDFDFD"/>
<path d="M160.523 19.655C158.959 21.2183 157.035 22 154.751 22C152.468 22 150.544 21.2183 148.98 19.655C147.396 18.0711 146.603 16.1477 146.603 13.885C146.603 11.6223 147.396 9.69892 148.98 8.11501C150.544 6.55166 152.468 5.76999 154.751 5.76999C157.035 5.76999 158.959 6.55166 160.523 8.11501C162.107 9.69892 162.9 11.6223 162.9 13.885C162.9 16.1477 162.107 18.0711 160.523 19.655ZM149.937 13.885C149.937 15.2838 150.4 16.446 151.326 17.3717C152.252 18.2973 153.393 18.7602 154.751 18.7602C156.11 18.7602 157.251 18.2973 158.177 17.3717C159.103 16.446 159.566 15.2838 159.566 13.885C159.566 12.4862 159.103 11.324 158.177 10.3983C157.251 9.47265 156.11 9.00982 154.751 9.00982C153.393 9.00982 152.252 9.47265 151.326 10.3983C150.4 11.324 149.937 12.4862 149.937 13.885Z" fill="#FDFDFD"/>
<path d="M169.247 6.17111V8.76297C170.091 6.84993 171.675 5.89341 174 5.89341V9.50351C172.745 9.42122 171.634 9.72978 170.667 10.4292C169.72 11.108 169.247 12.2394 169.247 13.8233V21.5989H165.914V6.17111H169.247Z" fill="#FDFDFD"/>
<path d="M4 9.26316C4 4.14726 8.17868 0 13.3333 0H32V1.15789C32 6.2738 27.8213 10.4211 22.6667 10.4211H4V9.26316Z" fill="#FA9F42"/>
<path d="M4 18.5263C4 15.3289 6.61167 12.7368 9.83333 12.7368H11C13.5773 12.7368 15.6667 14.8105 15.6667 17.3684C15.6667 19.9264 13.5773 22 11 22H4V18.5263Z" fill="#FA9F42"/>
<path d="M20.3333 18.5263C20.3333 15.3289 22.945 12.7368 26.1667 12.7368H27.3333C29.9107 12.7368 32 14.8105 32 17.3684C32 19.9264 29.9107 22 27.3333 22H20.3333V18.5263Z" fill="#FA9F42"/>
</g>
<defs>
<filter id="filter0_d_4_554" x="0" y="0" width="178" height="30" filterUnits="userSpaceOnUse" color-interpolation-filters="sRGB">
<feFlood flood-opacity="0" result="BackgroundImageFix"/>
<feColorMatrix in="SourceAlpha" type="matrix" values="0 0 0 0 0 0 0 0 0 0 0 0 0 0 0 0 0 0 127 0" result="hardAlpha"/>
<feOffset dy="4"/>
<feGaussianBlur stdDeviation="2"/>
<feComposite in2="hardAlpha" operator="out"/>
<feColorMatrix type="matrix" values="0 0 0 0 0 0 0 0 0 0 0 0 0 0 0 0 0 0 0.25 0"/>
<feBlend mode="normal" in2="BackgroundImageFix" result="effect1_dropShadow_4_554"/>
<feBlend mode="normal" in="SourceGraphic" in2="effect1_dropShadow_4_554" result="shape"/>
</filter>
</defs>
</svg>
